# xmcd CD database file
# Copyright (C) 1996 Ti Kan
#
# Track frame offsets:
# 	150
# 	12662
# 	26877
# 	42050
# 	56190
# 	69605
# 	86617
# 	100460
# 	112655
# 	126792
#
# Disc length: 1920 seconds
#
# Revision: 1
# Processed by: cddbd v1.4b41PL1 Copyright (c) Steve Scherf et al.
# Submitted via: DiscPlay 3.3.1
#
DISCID=86077e0a
DTITLE=Daryle Singletary - Daryle Singletary
DYEAR=1900
DGENRE=
TTITLE0=To Much Fun
TTITLE1=I'm Living Up To Her Low Expectations
TTITLE2=There's A Cold Spell Movin' In
TTITLE3=Ordinary Heroes
TTITLE4=I Let Her Lie
TTITLE5=A Love That Never Died
TTITLE6=Workin' It Out
TTITLE7=My Heart's To Broke (To Pay Attention)
TTITLE8=Would These Arms Be In Your Way
TTITLE9=What Am I Doing There
EXTD=
EXTT0=
EXTT1=
EXTT2=
EXTT3=
EXTT4=
EXTT5=
EXTT6=
EXTT7=
EXTT8=
EXTT9=
PLAYORDER=
